<?xml version="1.0" ?><!DOCTYPE svg  PUBLIC '-//W3C//DTD SVG 1.1//EN'  'http://www.w3.org/Graphics/SVG/1.1/DTD/svg11.dtd'><svg enable-background="new 0 0 100 100" height="100px" version="1.1" viewBox="0 0 100 100" width="100px" xml:space="preserve" xmlns="http://www.w3.org/2000/svg" xmlns:xlink="http://www.w3.org/1999/xlink"><g id="color_x5F_fill"><path d="M77.245,34.5c-1.132,1.066-2.543,2.983-3.989,3.584c0.278,1.314-0.001,2.837-0.265,4.152   c-0.301,1.498-0.059,3.134-0.519,4.583c-0.487,1.538-0.632,3.132-1.146,4.665c-0.595,1.771-1.646,3.622-2.67,5.163   c-0.887,1.334-1.495,2.759-2.349,4.08c-0.982,1.521-2.335,2.477-3.483,3.759c-1.72,1.918-4.117,3.51-6.333,5.001   c-1.833,1.234-3.973,1.771-5.981,2.685c-0.787,0.359-1.741,0.655-2.602,0.876c-0.775,0.2-2.084,0.688-2.917,0.688l-1.5,0.258   c-0.607,0.056-2.129-0.059-2.917-0.008c-0.787,0.052-1.544-0.168-2.351-0.166c-1.976,0.004-3.956-0.06-5.901-0.315   c-3.389-0.446-7.294-1.964-10.083-3.955c-0.503-0.359-0.886-0.866-1.386-1.233c2.923,0.686,6.608,0.577,9.392-0.668   c1.543-0.69,3.295-0.996,4.68-1.973c1.064-0.751,2.31-1.56,3.394-2.17c-2.501-0.234-4.81-0.963-7.081-2.163   c-1.12-0.591-4.079-3.856-4.066-6.344c1.737-0.032,3.302,0.202,5.063-0.031c-1.243-0.331-2.276-0.872-3.414-1.629   c-1.281-0.853-2.354-1.484-3.681-2.932c-1.559-1.7-2.062-4.967-1.886-7.326c0.805,0.08,1.476,0.592,2.256,0.824   c0.808,0.239,1.764,0.207,2.533,0.588c-2.558-0.833-3.873-4.916-4.533-7.191c-0.769-2.648,0.863-8.649,0.917-8.805   c1.994,1.516,3.455,3.8,5.461,5.181c1.16,0.8,2.479,1.682,3.604,2.476c0.57,0.402,1.001,0.589,1.581,1.021   c0.504,0.374,1.274,0.642,1.836,0.894c1.445,0.65,3.246,1.359,4.833,1.65c1.863,0.342,3.834,0.415,5.583,1.019l2.084,0.25   c-0.577-2.281-0.262-5.318,0.437-7.662c0.808-2.711,3.567-5.023,6.043-6.191c2.309-1.09,6.114-1.58,8.521-0.65   c1.231,0.475,2.505,1.035,3.649,1.673c1.066,0.594,1.589,1.965,2.767,1.812c2.072-0.268,5.249-1.551,6.504-3.369   c-0.051,3.205-1.94,5.092-4.331,7.038c1.956-0.571,4.282-0.736,6.149-1.561C78.644,33.08,78.066,33.726,77.245,34.5z" fill="#1DA1F2"/></g><g id="offset_x5F_print_x5F_outline"/></svg>